<?xml version="1.0" standalone="no"?>
<!DOCTYPE svg PUBLIC "-//W3C//DTD SVG 20010904//EN"
 "http://www.w3.org/TR/2001/REC-SVG-20010904/DTD/svg10.dtd">
<svg version="1.0" xmlns="http://www.w3.org/2000/svg"
 width="70.000000pt" height="70.000000pt" viewBox="0 0 70.000000 70.000000"
 preserveAspectRatio="xMidYMid meet">
<metadata>
Created by potrace 1.14, written by Peter Selinger 2001-2017
</metadata>
<g transform="translate(0.000000,70.000000) scale(0.100000,-0.100000)"
fill="#000000" stroke="none">
<path d="M257 669 c-91 -21 -188 -113 -223 -211 -18 -49 -25 -146 -12 -154 4
-3 6 -9 3 -14 -14 -23 65 -173 82 -156 4 3 -3 16 -14 29 -18 19 -35 53 -31 60
1 1 -5 13 -12 27 -20 38 -22 152 -3 202 50 130 157 207 293 211 39 1 70 5 70
9 0 11 -105 8 -153 -3z"/>
<path d="M437 665 c-32 -32 -287 -404 -287 -419 0 -8 8 -20 18 -25 24 -13 51
6 90 62 162 237 210 302 217 296 4 -5 -47 -83 -142 -218 -104 -147 -109 -160
-82 -195 40 -51 77 -34 144 66 28 40 54 77 58 83 65 80 157 225 157 248 0 34
-43 81 -93 102 -46 19 -62 19 -80 0z m79 -31 c55 -26 80 -76 54 -107 -9 -10
-89 -122 -120 -167 -135 -198 -155 -217 -179 -171 -9 16 9 47 110 191 66 95
123 178 125 185 5 13 -21 45 -37 45 -16 0 -41 -32 -142 -175 -108 -156 -146
-205 -147 -190 0 9 35 62 140 210 93 132 141 195 151 195 6 0 26 -7 45 -16z"/>
<path d="M620 516 c0 -2 7 -20 15 -40 9 -21 18 -56 21 -79 4 -23 7 -43 9 -45
1 -2 -2 -22 -7 -45 -5 -23 -11 -51 -14 -62 -7 -33 -73 -122 -112 -148 -91 -62
-201 -78 -294 -42 -10 4 -18 3 -18 -2 0 -31 160 -42 228 -17 111 41 189 124
218 229 10 39 12 155 2 155 -4 0 -7 3 -6 8 5 12 -25 92 -34 92 -4 0 -8 -2 -8
-4z"/>
<path d="M137 160 c-18 -26 -16 -91 5 -104 12 -7 27 -5 57 8 63 29 64 56 6 94
-42 27 -50 27 -68 2z m66 -38 c17 -15 17 -16 -5 -29 -43 -23 -47 -17 -39 50 1
9 18 1 44 -21z"/>
</g>
</svg>
